Coordinates
version=1
nRows=13
nColumns=27
inDegrees=yes

Units are S.I. units (second, meters, Newtons, ...)
If the header above contains a line with 'inDegrees', this indicates whether rotational values are in degrees (yes) or radians (no).

endheader
time	pelvis_rotation	pelvis_tilt	pelvis_list	pelvis_tx	pelvis_ty	pelvis_tz	hip_flexion_r	hip_adduction_r	hip_rotation_r	knee_angle_r	knee_rotation_r	knee_adduction_r	knee_angle_r_beta	ankle_angle_r	subtalar_angle_r	mtp_angle_r	hip_flexion_l	hip_adduction_l	hip_rotation_l	knee_angle_l	knee_rotation_l	knee_adduction_l	knee_angle_l_beta	ankle_angle_l	subtalar_angle_l	mtp_angle_l
      1.39000000	      4.45795630	    -43.81785080	      5.45718444	     -0.10977903	      0.80933629	     -1.20894059	     91.47426335	    -15.91361867	    -13.65661482	     56.16325763	     -5.94418308	      9.09097041	      0.98023376	      3.71764262	     -2.97930147	      0.00000000	     88.34033055	     -8.26128189	    -14.86996192	     51.24525437	     -5.93863319	     -9.15375788	      0.89439841	      3.49511729	      5.61518688	      0.00000000
      1.39500000	      4.88507606	    -43.51887903	      5.81508181	     -0.10899847	      0.81047682	     -1.20948759	     91.05742584	    -16.38124841	    -14.27475696	     55.97512519	     -6.34645736	      9.50545553	      0.97695023	      3.77126606	     -2.69688665	      0.00000000	     87.78966986	     -7.77152268	    -15.46346986	     50.78451296	     -6.35564565	     -9.52996808	      0.88635696	      3.39666869	      5.69565467	      0.00000000
      1.40000000	      4.63023818	    -43.73126305	      5.59772083	     -0.10995048	      0.81037457	     -1.20916072	     91.23250244	    -16.12935549	    -13.71447364	     55.91003633	     -5.82789165	      9.08947648	      0.97581422	      3.63043203	     -2.88133768	      0.00000000	     88.02934662	     -8.12320030	    -14.90630648	     50.86355045	     -5.79789610	     -9.14561618	      0.88773642	      3.35419644	      5.60600725	      0.00000000
      1.40500000	      4.19443256	    -42.10290865	      4.98964242	     -0.10777935	      0.81271328	     -1.20903196	     88.79444839	    -15.94070120	    -14.86287609	     55.09446653	     -6.23669344	      9.15623350	      0.96157984	      3.73947941	     -2.21823718	      0.00000000	     85.87375897	     -8.34732444	    -15.39532502	     50.21894801	     -6.28225789	     -9.15597940	      0.87648599	      3.60597094	      6.92373566	      0.00000000
      1.41000000	      4.93761916	    -43.39629280	      5.79745878	     -0.10917141	      0.81222885	     -1.20959416	     90.57740945	    -16.49284496	    -14.44405489	     55.47291795	     -6.16732385	      9.49973600	      0.96818506	      3.62444541	     -2.57278431	      0.00000000	     87.31309855	     -7.77707780	    -15.45925979	     50.22690467	     -6.10086083	     -9.52235322	      0.87662486	      3.20624866	      5.71899772	      0.00000000
      1.41500000	      4.89308866	    -43.32566792	      5.83322463	     -0.10921401	      0.81287996	     -1.20959814	     90.40056256	    -16.47271312	    -14.37774054	     55.28706768	     -6.07923676	      9.49516917	      0.96494136	      3.56040946	     -2.59918429	      0.00000000	     87.07637934	     -7.83127453	    -15.57222620	     50.00905972	     -6.00943285	     -9.52178074	      0.87282275	      3.16266512	      5.77075853	      0.00000000
      1.42000000	      4.97558832	    -43.29451764	      5.85678609	     -0.10927877	      0.81354359	     -1.20970058	     90.22894112	    -16.57659761	    -14.41237420	     55.11161483	     -5.95247774	      9.49203384	      0.96187913	      3.54385562	     -2.57719779	      0.00000000	     86.91907146	     -7.75657950	    -15.55979260	     49.78014829	     -5.95540099	     -9.51930559	      0.86882749	      3.06541296	      5.76919961	      0.00000000
      1.42500000	      4.33265127	    -42.83983120	      5.34640047	     -0.10885020	      0.81470453	     -1.20913778	     89.38831125	    -15.98017730	    -14.67267752	     54.60883752	     -6.09862501	      9.48615077	      0.95310402	      3.43487137	     -2.46091879	      0.00000000	     86.17680794	     -8.38703738	    -15.65968907	     49.54869781	     -5.74022420	     -9.53688664	      0.86478792	      3.05989068	      5.86400798	      0.00000000
      1.43000000	      4.24974777	    -41.32322157	      4.93827729	     -0.10718985	      0.81673158	     -1.20922221	     87.11556647	    -16.12466680	    -15.38090429	     53.89851904	     -6.01964918	      9.14727928	      0.94070662	      3.55586585	     -1.79824795	      0.00000000	     84.19557583	     -8.30648069	    -15.63323671	     48.88594834	     -5.98243049	     -9.13010119	      0.85322076	      3.30934714	      7.35490338	      0.00000000
      1.43500000	      4.95702502	    -43.16413833	      5.85711278	     -0.10939684	      0.81569445	     -1.20970005	     89.66526383	    -16.61710700	    -14.47662441	     54.47254931	     -5.68758557	      9.48155348	      0.95072534	      3.34330078	     -2.57586470	      0.00000000	     86.29869786	     -7.84915547	    -15.58995162	     49.08459508	     -5.56046440	     -9.50917108	      0.85668780	      2.89386323	      5.78609595	      0.00000000
      1.44000000	      4.69170488	    -43.44175522	      5.57881352	     -0.11030982	      0.81576894	     -1.20934403	     89.83829884	    -16.35087949	    -13.97785180	     54.34138170	     -5.15300341	      9.04721356	      0.94843603	      3.23010090	     -2.71068488	      0.00000000	     86.58966500	     -8.21734582	    -15.01091011	     49.13062650	     -5.03814359	     -9.10356854	      0.85749120	      2.87282813	      5.80377932	      0.00000000
      1.44500000	      4.64067367	    -43.05837406	      5.56862961	     -0.10940849	      0.81717580	     -1.20945862	     89.16111110	    -16.37924172	    -14.56873245	     53.95375918	     -5.46195574	      9.47404712	      0.94167074	      3.19003210	     -2.64250649	      0.00000000	     85.88018658	     -8.20387937	    -15.59863198	     48.69765596	     -5.29973542	     -9.50578631	      0.84993443	      2.81538434	      5.88767432	      0.00000000
      1.45000000	      4.61862009	    -43.03363848	      5.56734173	     -0.10945592	      0.81785088	     -1.20946299	     88.99639142	    -16.39487436	    -14.56998126	     53.75043055	     -5.34394271	      9.47102119	      0.93812199	      3.13585467	     -2.62094659	      0.00000000	     85.69839600	     -8.24549711	    -15.62385122	     48.47796014	     -5.17765918	     -9.50372822	      0.84610002	      2.75273192	      5.88652369	      0.00000000
